# xmcd CD database file
#
# Track frame offsets:
#	150
#	16016
#	32272
#	54502
#	70801
#	87388
#	108238
#	124964
#	141886
#	162011
#	184513
#	206116
#	226762
#	243715
#	270041
#	293789
#	316755
#
# Disc length: 4594 seconds
#
# Revision: 0
# Processed by: cddbd v1.5.1PL0 Copyright (c) Steve Scherf et al.
# Submitted via: CDex 1.51
#
DISCID=da11f011
DTITLE=ABC - Absolutely
DYEAR=1900
DGENRE=New Age
TTITLE0=Poison Arrow
TTITLE1=The Look of Love
TTITLE2=All of My Heart
TTITLE3=Tears Are Not Enough
TTITLE4=That Was Then But This Is Now
TTITLE5=S.O.S.
TTITLE6=How To Be A Millionaire
TTITLE7=Be Near Me
TTITLE8=When Smokey Sings
TTITLE9=The Night You Murdered Love
TTITLE10=King Without a Crown
TTITLE11=One Better World
TTITLE12=Ocean Blue
TTITLE13=The Look of Love (Remix)
TTITLE14=When Smokey Sings (Miami Mix)
TTITLE15=Be Near Me (Munich Disco Mix)
TTITLE16=One Better World (Pickering Park Mix)
EXTD=
EXTT0=
EXTT1=
EXTT2=
EXTT3=
EXTT4=
EXTT5=
EXTT6=
EXTT7=
EXTT8=
EXTT9=
EXTT10=
EXTT11=
EXTT12=
EXTT13=
EXTT14=
EXTT15=
EXTT16=
PLAYORDER=
